<?xml version="1.0" encoding="UTF-8" standalone="no"?>
<!DOCTYPE svg PUBLIC "-//W3C//DTD SVG 1.1//EN" "http://www.w3.org/Graphics/SVG/1.1/DTD/svg11.dtd">
<svg width="100%" height="100%" viewBox="0 0 513 512" version="1.1" xmlns="http://www.w3.org/2000/svg" xmlns:xlink="http://www.w3.org/1999/xlink" xml:space="preserve" xmlns:serif="http://www.serif.com/" style="fill-rule:evenodd;clip-rule:evenodd;stroke-linejoin:round;stroke-miterlimit:2;">
    <g transform="matrix(1,0,0,1,0.000834838,-0.0060512)">
        <path d="M204.916,504.49C197.248,504.49 190.373,499.131 188.745,491.33C181.198,455.225 190.534,394.667 192.569,385.026C194.451,376.085 203.229,370.37 212.166,372.253C221.104,374.14 226.822,382.909 224.94,391.85C222.568,403.093 215.338,456.869 221.127,484.561C222.994,493.506 217.26,502.267 208.319,504.135C207.178,504.377 206.037,504.49 204.916,504.49Z" style="fill:rgb(239,209,118);fill-rule:nonzero;"/>
        <path d="M305.22,504.49C304.099,504.49 302.962,504.377 301.818,504.135C292.876,502.267 287.142,493.506 289.013,484.561C294.798,456.869 287.568,403.093 285.197,391.85C283.314,382.909 289.033,374.14 297.974,372.253C306.908,370.37 315.685,376.085 317.572,385.026C319.603,394.667 328.939,455.225 321.396,491.33C319.763,499.131 312.884,504.49 305.22,504.49Z" style="fill:rgb(239,209,118);fill-rule:nonzero;"/>
        <path d="M436.793,350.538C391.575,350.538 348.317,321.331 333.087,292.543C328.818,284.469 331.9,274.457 339.978,270.187C348.056,265.914 358.059,269 362.333,277.074C367.852,287.515 382.86,301.929 403.938,310.605C416.5,315.777 441.121,322.726 464.859,311.148C473.07,307.14 482.973,310.554 486.976,318.765C490.98,326.976 487.57,336.878 479.359,340.882C465.527,347.628 451.059,350.538 436.793,350.538Z" style="fill:rgb(239,209,118);fill-rule:nonzero;"/>
        <path d="M103.62,329.945C102.706,329.945 101.792,329.929 100.874,329.898C80.597,329.23 50.921,320.925 24.687,285.152C19.289,277.785 20.879,267.43 28.246,262.031C35.613,256.629 45.964,258.223 51.367,265.59C65.91,285.418 83.402,296.222 101.964,296.836C119.476,297.382 137.354,288.941 149.76,274.172C155.635,267.176 166.069,266.269 173.065,272.144C180.061,278.019 180.967,288.453 175.092,295.449C156.835,317.183 130.292,329.945 103.62,329.945Z" style="fill:rgb(239,209,118);fill-rule:nonzero;"/>
        <path d="M209.592,74.15C232.865,97.419 236.853,133.653 237.252,152.247C237.396,159.005 231.873,164.528 225.115,164.384C206.522,163.985 170.288,160.001 147.014,136.728C123.745,113.454 119.757,77.22 119.358,58.627C119.214,51.869 124.737,46.346 131.495,46.49C150.089,46.888 186.323,50.877 209.592,74.15Z" style="fill:rgb(142,226,207);fill-rule:nonzero;"/>
        <path d="M192.26,126.892C190.342,126.892 188.424,126.161 186.959,124.696L159.046,96.786C156.116,93.857 156.116,89.107 159.046,86.177C161.975,83.251 166.725,83.251 169.655,86.177L197.565,114.091C200.494,117.021 200.494,121.767 197.565,124.696C196.1,126.161 194.182,126.892 192.26,126.892Z" style="fill:rgb(111,206,145);fill-rule:nonzero;"/>
        <path d="M300.54,74.15C277.271,97.419 273.283,133.653 272.884,152.247C272.74,159.005 278.263,164.528 285.021,164.384C303.615,163.985 339.849,160.001 363.122,136.728C386.391,113.454 390.38,77.22 390.778,58.627C390.923,51.869 385.399,46.346 378.641,46.49C360.048,46.888 323.814,50.877 300.54,74.15Z" style="fill:rgb(142,226,207);fill-rule:nonzero;"/>
        <path d="M317.876,126.892C315.958,126.892 314.036,126.161 312.572,124.696C309.642,121.767 309.642,117.021 312.572,114.091L340.482,86.177C343.411,83.251 348.161,83.251 351.091,86.177C354.02,89.107 354.02,93.857 351.091,96.786L323.177,124.696C321.716,126.161 319.794,126.892 317.876,126.892Z" style="fill:rgb(111,206,145);fill-rule:nonzero;"/>
        <path d="M299.318,85.947C299.318,118.857 276.517,147.298 263.65,160.727C258.974,165.606 251.162,165.606 246.486,160.727C233.619,147.298 210.819,118.857 210.819,85.947C210.819,53.033 233.619,24.592 246.486,11.162C251.162,6.283 258.974,6.283 263.65,11.162C276.517,24.592 299.318,53.033 299.318,85.947Z" style="fill:rgb(142,226,207);fill-rule:nonzero;"/>
        <path d="M255.068,113.181C250.928,113.181 247.568,109.825 247.568,105.681L247.568,66.209C247.568,62.064 250.928,58.709 255.068,58.709C259.213,58.709 262.568,62.064 262.568,66.209L262.568,105.681C262.568,109.825 259.213,113.181 255.068,113.181Z" style="fill:rgb(111,206,145);fill-rule:nonzero;"/>
        <path d="M255.068,133.829C323.341,133.829 372.149,187.598 378.688,269.027C385.493,353.726 353.634,416.909 255.068,416.909C156.503,416.909 124.643,353.726 131.448,269.027C137.991,187.598 186.795,133.829 255.068,133.829Z" style="fill:rgb(247,239,135);fill-rule:nonzero;"/>
        <path d="M214.256,140.927C167.897,158.04 136.593,204.973 131.448,269.027C124.659,353.491 156.335,416.549 254.256,416.901C135.401,344.183 167.272,212.981 214.256,140.927Z" style="fill:rgb(239,209,118);fill-rule:nonzero;"/>
        <path d="M267.072,238.238C265.154,238.238 263.232,237.504 261.767,236.039L255.068,229.34L248.369,236.039C245.439,238.969 240.689,238.969 237.764,236.039C234.834,233.113 234.834,228.364 237.76,225.434L249.764,213.43C251.17,212.024 253.076,211.235 255.068,211.235C257.056,211.235 258.963,212.024 260.373,213.43L272.377,225.434C275.302,228.364 275.302,233.113 272.377,236.039C270.912,237.504 268.99,238.238 267.072,238.238Z" style="fill:rgb(239,209,118);fill-rule:nonzero;"/>
        <path d="M311.689,238.238C309.771,238.238 307.849,237.504 306.384,236.039C303.454,233.11 303.454,228.364 306.384,225.434L318.388,213.43C319.794,212.024 321.704,211.235 323.693,211.235C325.681,211.235 327.591,212.024 328.997,213.43L341.001,225.434C343.927,228.364 343.927,233.113 340.997,236.039C338.067,238.969 333.321,238.969 330.392,236.039L323.693,229.34L316.993,236.039C315.529,237.504 313.607,238.238 311.689,238.238Z" style="fill:rgb(239,209,118);fill-rule:nonzero;"/>
        <path d="M198.448,238.238C196.53,238.238 194.608,237.504 193.143,236.039L186.444,229.34L179.745,236.039C176.815,238.969 172.065,238.969 169.139,236.039C166.21,233.113 166.21,228.364 169.139,225.434L181.139,213.43C182.545,212.024 184.455,211.235 186.444,211.235C188.436,211.235 190.342,212.024 191.748,213.43L203.752,225.434C206.682,228.364 206.682,233.113 203.752,236.039C202.287,237.504 200.366,238.238 198.448,238.238Z" style="fill:rgb(239,209,118);fill-rule:nonzero;"/>
        <path d="M301.384,378.921C299.466,378.921 297.544,378.19 296.08,376.726L289.38,370.022L282.681,376.726C279.752,379.655 275.002,379.651 272.076,376.726C269.146,373.796 269.146,369.046 272.076,366.12L284.08,354.116C285.482,352.71 287.392,351.917 289.38,351.917C291.369,351.917 293.279,352.71 294.685,354.112L306.689,366.116C309.618,369.05 309.618,373.796 306.689,376.726C305.224,378.186 303.302,378.921 301.384,378.921Z" style="fill:rgb(239,209,118);fill-rule:nonzero;"/>
        <path d="M208.752,378.921C206.834,378.921 204.912,378.19 203.448,376.726C200.522,373.796 200.522,369.046 203.448,366.116L215.451,354.112C216.861,352.71 218.768,351.917 220.756,351.917C222.744,351.917 224.654,352.71 226.061,354.116L238.064,366.12C240.99,369.05 240.99,373.796 238.061,376.726C235.135,379.651 230.385,379.655 227.455,376.726L220.756,370.022L214.057,376.726C212.592,378.186 210.67,378.921 208.752,378.921Z" style="fill:rgb(239,209,118);fill-rule:nonzero;"/>
        <path d="M204.869,315.566C204.869,302.656 191.725,292.187 175.514,292.187C159.303,292.187 146.159,302.656 146.159,315.566C146.159,328.476 159.303,338.941 175.514,338.941C191.725,338.941 204.869,328.476 204.869,315.566Z" style="fill:rgb(237,161,171);fill-rule:nonzero;"/>
        <path d="M363.977,315.566C363.977,302.656 350.833,292.187 334.622,292.187C318.411,292.187 305.267,302.656 305.267,315.566C305.267,328.476 318.411,338.941 334.622,338.941C350.833,338.941 363.977,328.476 363.977,315.566Z" style="fill:rgb(237,161,171);fill-rule:nonzero;"/>
        <path d="M455.875,242.809C447.145,242.809 440.067,235.735 440.067,227.004L440.067,197.661C440.067,186.157 448.219,176.071 459.449,173.68C468.012,171.86 473.738,163.848 472.769,155.048C471.918,147.341 465.449,140.931 457.727,140.142C452.469,139.606 447.539,141.337 443.852,145.024C437.68,151.2 427.672,151.2 421.496,145.028C415.325,138.856 415.325,128.845 421.496,122.673C431.883,112.282 446.25,107.181 460.945,108.693C483.515,111.001 501.703,129.036 504.191,151.579C506.738,174.614 493.019,195.77 471.684,203.047L471.684,227C471.684,235.735 464.605,242.809 455.875,242.809Z" style="fill:rgb(78,86,96);fill-rule:nonzero;"/>
        <path d="M455.875,287.996C447.145,287.996 440.067,280.922 440.067,272.191L440.067,270.141C440.067,261.41 447.145,254.332 455.875,254.332C464.605,254.332 471.684,261.41 471.684,270.141L471.684,272.191C471.684,280.922 464.605,287.996 455.875,287.996Z" style="fill:rgb(154,163,177);fill-rule:nonzero;"/>
        <path d="M56.113,212.832C54.433,212.832 52.75,212.746 51.058,212.575C28.488,210.266 10.301,192.227 7.809,169.688C5.266,146.653 18.98,125.497 40.32,118.22L40.32,94.263C40.32,85.533 47.394,78.455 56.125,78.455C64.855,78.455 71.933,85.533 71.933,94.263L71.933,123.607C71.933,135.11 63.781,145.196 52.55,147.587C43.988,149.407 38.261,157.419 39.234,166.216C40.086,173.923 46.554,180.333 54.277,181.126C59.531,181.665 64.464,179.926 68.152,176.239C74.324,170.067 84.335,170.067 90.507,176.239C96.679,182.415 96.679,192.422 90.507,198.594C81.316,207.786 68.999,212.832 56.113,212.832Z" style="fill:rgb(78,86,96);fill-rule:nonzero;"/>
        <path d="M56.125,66.935C47.394,66.935 40.32,59.857 40.32,51.127L40.32,49.076C40.32,40.346 47.394,33.267 56.125,33.267C64.855,33.267 71.933,40.346 71.933,49.076L71.933,51.127C71.933,59.857 64.855,66.935 56.125,66.935Z" style="fill:rgb(154,163,177);fill-rule:nonzero;"/>
        <path d="M432.676,157.157C438.903,157.157 444.754,154.731 449.156,150.329C451.246,148.239 453.942,147.302 456.961,147.602C461.18,148.036 464.848,151.669 465.313,155.872C465.859,160.825 462.668,165.329 457.887,166.348C443.215,169.469 432.567,182.637 432.567,197.661L432.567,227.004C432.567,236.735 438.563,245.086 447.055,248.574C438.563,252.059 432.567,260.41 432.567,270.141L432.567,272.191C432.567,285.043 443.024,295.5 455.875,295.5C468.727,295.5 479.183,285.043 479.183,272.191L479.183,270.141C479.183,260.41 473.187,252.059 464.695,248.574C473.187,245.086 479.183,236.735 479.183,227.004L479.183,208.141C501.187,198.208 514.363,175.352 511.648,150.759C508.773,124.728 487.773,103.9 461.711,101.232C444.785,99.493 428.188,105.376 416.192,117.372C407.106,126.458 407.106,141.247 416.196,150.333C420.594,154.735 426.45,157.157 432.676,157.157ZM464.184,272.191C464.184,276.769 460.453,280.496 455.875,280.496C451.293,280.496 447.567,276.769 447.567,272.191L447.567,270.141C447.567,265.559 451.293,261.832 455.875,261.832C460.453,261.832 464.184,265.559 464.184,270.141L464.184,272.191ZM426.797,127.978C435.586,119.185 447.75,114.88 460.184,116.154C479.262,118.107 494.633,133.353 496.738,152.403C498.879,171.798 487.582,189.704 469.262,195.95C466.227,196.985 464.184,199.84 464.184,203.047L464.184,227.004C464.184,231.586 460.457,235.313 455.875,235.313C451.293,235.313 447.567,231.586 447.567,227.004L447.567,197.661C447.567,189.676 453.219,182.676 461.008,181.02C473.359,178.387 481.617,166.872 480.223,154.227C478.988,143.087 469.645,133.825 458.484,132.681C457.59,132.591 456.699,132.544 455.82,132.544C449.281,132.544 443.227,135.044 438.547,139.724C436.981,141.294 434.891,142.161 432.672,142.161C430.453,142.161 428.368,141.298 426.801,139.728C423.559,136.485 423.559,131.216 426.797,127.978ZM317.517,274.379C313.372,274.379 310.017,277.738 310.017,281.879L310.017,292.246C310.017,296.386 313.372,299.746 317.517,299.746C321.657,299.746 325.017,296.386 325.017,292.246L325.017,281.879C325.017,277.738 321.657,274.379 317.517,274.379ZM274.373,293.265C262.267,288.316 246.521,288.289 238.853,288.289L238.603,288.289C234.463,288.289 231.104,291.644 231.104,295.789C231.104,299.929 234.463,303.289 238.603,303.289L238.838,303.289C245.037,303.289 259.306,303.308 268.693,307.148C269.623,307.527 270.584,307.707 271.529,307.707C274.486,307.707 277.287,305.949 278.474,303.046C280.041,299.211 278.205,294.832 274.373,293.265ZM479.937,303.285C473.863,301.191 467.34,301.593 461.57,304.406C440.469,314.699 418.192,308.363 406.793,303.671C399.833,300.808 393.083,297.015 387.063,292.625C387.133,284.875 386.837,276.808 386.165,268.426C382.817,226.75 368.778,191.274 345.567,165.837C343.931,164.04 342.251,162.309 340.54,160.634C351.489,155.845 360.837,149.614 368.423,142.028C393.383,117.068 397.84,79.162 398.278,58.787C398.391,53.459 396.376,48.443 392.602,44.67C388.829,40.896 383.794,38.865 378.481,38.994C360.184,39.385 327.751,43.029 303.251,61.845C296.111,37.287 279.818,17.197 269.064,5.975C265.377,2.127 260.408,0.006 255.068,0.006C249.732,0.006 244.76,2.123 241.072,5.975C230.318,17.197 214.026,37.287 206.885,61.845C182.385,43.029 149.952,39.385 131.655,38.994C126.323,38.865 121.308,40.896 117.534,44.67C113.761,48.443 111.745,53.459 111.862,58.787C111.937,62.338 112.124,65.931 112.421,69.466C112.765,73.595 116.413,76.666 120.519,76.318C124.647,75.97 127.714,72.349 127.37,68.22C127.1,64.99 126.929,61.709 126.858,58.466C126.823,56.842 127.647,55.771 128.143,55.275C128.64,54.779 129.725,53.974 131.335,53.99C172.608,54.873 194.178,69.638 203.647,78.822C203.44,81.169 203.319,83.544 203.319,85.947C203.319,101.064 207.651,116.614 216.182,132.286C204.084,136.189 192.799,141.989 182.518,149.602C170.225,145.282 160.077,139.181 152.319,131.423C144.6,123.704 138.503,113.607 134.186,101.404C132.804,97.501 128.518,95.454 124.616,96.833C120.71,98.216 118.663,102.501 120.046,106.404C125.108,120.732 132.401,132.72 141.714,142.032C149.3,149.618 158.651,155.845 169.6,160.638C167.889,162.313 166.21,164.044 164.569,165.841C141.358,191.278 127.319,226.75 123.972,268.43C123.515,274.133 123.241,279.683 123.124,285.097C116.315,288.09 109.167,289.57 102.214,289.34C86.038,288.808 70.546,279.062 57.417,261.156C49.578,250.465 34.504,248.141 23.812,255.984C13.125,263.82 10.805,278.898 18.644,289.586C46.656,327.792 78.691,336.675 100.628,337.398C101.628,337.429 102.624,337.449 103.62,337.449C111.687,337.449 119.753,336.382 127.706,334.281C132.714,355.753 141.757,373.644 154.799,387.776C162.413,396.026 171.327,402.889 181.502,408.362C178.838,430.713 176.002,467.022 181.405,492.865C183.721,503.947 193.608,511.994 204.92,511.994C206.572,511.994 208.237,511.818 209.854,511.478C216.139,510.166 221.537,506.482 225.053,501.111C228.568,495.736 229.783,489.318 228.471,483.029C224.951,466.201 226.725,439.077 228.314,422.729C236.76,423.846 245.678,424.409 255.072,424.409C264.463,424.409 273.384,423.846 281.826,422.729C283.416,439.073 285.189,466.201 281.673,483.029C280.357,489.318 281.572,495.736 285.087,501.111C288.603,506.482 294.001,510.166 300.279,511.478C301.904,511.818 303.568,511.994 305.22,511.994C312.544,511.994 319.618,508.541 324.142,502.764C326.696,499.502 326.122,494.787 322.861,492.232C319.599,489.682 314.884,490.256 312.333,493.514C310.24,496.185 306.708,497.502 303.353,496.795C300.99,496.303 298.958,494.92 297.638,492.9C296.318,490.877 295.861,488.463 296.357,486.1C300.283,467.295 298.533,438.913 296.642,420.096C302.826,418.69 308.701,416.936 314.279,414.85C315.732,428.198 317.216,446.959 316.681,464.623C316.556,468.764 319.814,472.221 323.954,472.346C324.029,472.35 324.107,472.35 324.181,472.35C328.22,472.35 331.552,469.139 331.677,465.076C332.302,444.291 330.278,422.225 328.634,408.362C338.814,402.889 347.728,396.026 355.337,387.78C366.333,375.866 374.477,361.28 379.766,344.14C394.165,351.245 413.915,358.042 436.797,358.042C453.051,358.042 468.48,354.538 482.648,347.628C494.562,341.816 499.527,327.394 493.719,315.48C490.902,309.707 486.008,305.375 479.937,303.285ZM101.12,322.402C82.507,321.789 55.187,314.058 30.738,280.715C27.789,276.695 28.66,271.027 32.679,268.078C36.703,265.129 42.371,266.004 45.32,270.023C61.269,291.777 80.773,303.64 101.734,304.332C108.929,304.558 116.226,303.445 123.296,301.097C123.589,307.449 124.155,313.566 124.976,319.46C117.097,321.66 109.105,322.664 101.12,322.402ZM306.818,85.947C306.818,83.548 306.701,81.177 306.49,78.834C327.771,58.134 360.856,54.369 378.802,53.986C380.419,53.998 381.501,54.779 381.997,55.271C382.489,55.767 383.313,56.842 383.278,58.466C382.891,76.591 379.067,110.169 357.817,131.423C350.06,139.181 339.907,145.282 327.618,149.599C317.337,141.989 306.056,136.185 293.955,132.282C302.486,116.614 306.818,101.064 306.818,85.947ZM251.9,16.354C253.025,15.178 254.369,15.002 255.068,15.002C255.767,15.002 257.111,15.178 258.236,16.354C287.455,46.849 291.818,73.045 291.818,85.947C291.818,99.576 287.459,113.864 278.88,128.482C271.197,127.06 263.248,126.329 255.068,126.329C246.889,126.329 238.939,127.06 231.256,128.482C222.678,113.864 218.318,99.572 218.318,85.947C218.318,73.045 222.682,46.849 251.9,16.354ZM212.498,492.896C211.178,494.916 209.147,496.299 206.776,496.795C206.166,496.924 205.537,496.99 204.916,496.99C200.67,496.99 196.955,493.963 196.084,489.795C191.393,467.334 193.721,434.604 195.866,414.846C201.44,416.936 207.315,418.69 213.494,420.092C211.604,438.909 209.854,467.291 213.783,486.096C214.279,488.459 213.822,490.873 212.498,492.896ZM372.024,295.597C371.997,295.898 371.985,296.195 371.997,296.492C371.661,308.828 370.29,320.195 367.891,330.574C367.704,331.097 367.579,331.632 367.513,332.171C363.044,350.503 355.306,365.694 344.314,377.604C324.837,398.706 294.81,409.409 255.068,409.409C215.326,409.409 185.299,398.71 165.823,377.604C153.237,363.968 144.917,346.023 140.889,323.988C140.846,323.535 140.764,323.081 140.639,322.632C138.901,312.628 138.046,301.785 138.061,290.133C138.069,289.953 138.073,289.769 138.065,289.586C138.089,283.176 138.37,276.527 138.925,269.629C142.003,231.297 154.702,198.903 175.651,175.95C179.631,171.587 183.862,167.626 188.327,164.067C188.346,164.052 188.366,164.036 188.385,164.02C200.545,154.333 214.412,147.645 229.568,144.161C229.588,144.153 229.607,144.149 229.627,144.145C237.76,142.278 246.264,141.329 255.068,141.329C280.306,141.329 303.048,149.122 321.747,164.016C321.771,164.032 321.79,164.052 321.814,164.067C326.275,167.626 330.509,171.587 334.489,175.95C355.435,198.907 368.134,231.301 371.216,269.629C371.942,278.707 372.212,287.367 372.024,295.597ZM476.07,334.144C463.965,340.046 450.754,343.038 436.793,343.038C415.125,343.038 396.512,336.034 383.52,329.214C384.735,323.105 385.645,316.722 386.235,310.062C390.962,312.906 395.919,315.414 401.083,317.542C414.813,323.191 441.774,330.749 468.148,317.89C470.316,316.828 472.769,316.679 475.051,317.468C477.336,318.253 479.176,319.882 480.234,322.054C482.422,326.535 480.555,331.956 476.07,334.144ZM50.289,220.035C52.214,220.231 54.171,220.332 56.113,220.332C71.109,220.332 85.21,214.496 95.808,203.899C104.898,194.809 104.898,180.024 95.808,170.934C86.722,161.848 71.933,161.848 62.847,170.938C60.753,173.032 58.058,173.977 55.039,173.665C50.82,173.231 47.152,169.598 46.687,165.395C46.14,160.438 49.332,155.938 54.109,154.919C68.781,151.802 79.433,138.63 79.433,123.603L79.433,94.263C79.433,84.533 73.437,76.177 64.945,72.693C73.437,69.209 79.433,60.857 79.433,51.127L79.433,49.076C79.433,36.224 68.976,25.771 56.125,25.771C43.273,25.771 32.816,36.224 32.816,49.076L32.816,51.127C32.816,60.857 38.812,69.209 47.304,72.693C38.812,76.177 32.816,84.533 32.816,94.263L32.816,113.126C10.812,123.064 -2.363,145.915 0.352,170.512C3.234,196.54 24.234,217.368 50.289,220.035ZM47.82,49.076C47.82,44.498 51.546,40.767 56.125,40.767C60.707,40.767 64.433,44.494 64.433,49.076L64.433,51.127C64.433,55.705 60.707,59.435 56.125,59.435C51.546,59.435 47.82,55.705 47.82,51.127L47.82,49.076ZM42.738,125.318C45.777,124.282 47.82,121.427 47.82,118.22L47.82,94.263C47.82,89.681 51.546,85.955 56.125,85.955C60.707,85.955 64.433,89.681 64.433,94.263L64.433,123.607C64.433,131.591 58.781,138.595 50.988,140.251C38.64,142.88 30.386,154.395 31.781,167.04C33.011,178.184 42.355,187.442 53.511,188.587C61.07,189.36 68.14,186.856 73.453,181.544C75.023,179.973 77.109,179.11 79.327,179.11C81.546,179.11 83.636,179.973 85.202,181.544C88.441,184.782 88.441,190.051 85.202,193.293C77.437,201.059 67.105,205.336 56.113,205.336C54.683,205.336 53.242,205.262 51.82,205.114C32.742,203.165 17.371,187.919 15.265,168.864C13.125,149.474 24.422,131.564 42.738,125.318ZM199.979,261.633C195.549,264.289 189.694,264.289 185.264,261.633C181.713,259.5 177.108,260.652 174.975,264.199C172.842,267.75 173.995,272.359 177.541,274.492C180.245,276.113 183.186,277.269 186.241,277.949C185.534,279.094 185.123,280.437 185.123,281.879L185.123,292.246C185.123,296.386 188.479,299.746 192.619,299.746C196.764,299.746 200.119,296.386 200.119,292.246L200.119,281.879C200.119,280.437 199.705,279.094 199.002,277.949C202.057,277.269 204.998,276.113 207.701,274.492C211.252,272.359 212.401,267.75 210.268,264.199C208.135,260.648 203.53,259.5 199.979,261.633Z" style="fill-rule:nonzero;"/>
    </g>
</svg>
