<?xml version="1.0" encoding="UTF-8" standalone="no"?>
<!DOCTYPE svg PUBLIC "-//W3C//DTD SVG 1.1//EN" "http://www.w3.org/Graphics/SVG/1.1/DTD/svg11.dtd">
<svg width="100%" height="100%" viewBox="0 0 564 564" version="1.1" xmlns="http://www.w3.org/2000/svg" xmlns:xlink="http://www.w3.org/1999/xlink" xml:space="preserve" xmlns:serif="http://www.serif.com/" style="fill-rule:evenodd;clip-rule:evenodd;stroke-linejoin:round;stroke-miterlimit:2;">
    <g transform="matrix(1,0,0,1,-516.462,-47.2373)">
        <g id="book.svg" transform="matrix(0.807345,0.293316,-0.293316,0.807345,798.231,329.006)">
            <g transform="matrix(1,0,0,1,-256,-256)">
                <clipPath id="_clip1">
                    <rect x="0" y="0" width="512" height="512"/>
                </clipPath>
                <g clip-path="url(#_clip1)">
                    <g>
                        <path d="M465.642,254.455L46.358,254.455C20.755,254.455 0,275.21 0,300.813L0,465.642C0,491.245 20.755,512 46.358,512L465.642,512C491.245,512 512,491.245 512,465.642L512,300.813C512,275.21 491.245,254.455 465.642,254.455Z" style="fill:rgb(130,136,203);fill-rule:nonzero;"/>
                        <path d="M123.622,465.642L123.622,300.813C123.622,275.21 144.377,254.455 169.98,254.455L46.358,254.455C20.755,254.455 0,275.21 0,300.813L0,465.642C0,491.245 20.755,512 46.358,512L169.98,512C144.377,512 123.622,491.245 123.622,465.642Z" style="fill:rgb(103,111,178);fill-rule:nonzero;"/>
                        <path d="M46.358,365.154L46.358,447.658C46.358,457.59 54.409,465.642 64.341,465.642L447.658,465.642C457.59,465.642 465.641,457.591 465.641,447.659L465.641,365.155L46.358,365.155L46.358,365.154Z" style="fill:rgb(255,206,113);fill-rule:nonzero;"/>
                        <g>
                            <path d="M255.999,195.013C216.343,169.451 166.186,164.721 121.988,183.357C118.616,184.778 115.332,186.029 112.129,187.129C98.416,191.837 86.2,193.782 75.03,194.563C58.839,195.696 46.358,209.319 46.358,225.55L46.358,396.149C46.358,406.083 54.411,414.133 64.342,414.133C84.143,414.133 103.743,410.17 121.989,402.476C165.606,384.078 215.833,388.242 256,414.133L307.509,327.958L255.999,195.013Z" style="fill:rgb(252,227,160);fill-rule:nonzero;"/>
                            <path d="M390.012,183.358C346.159,164.867 296.003,169.23 256.001,195.014L255.999,195.014L255.999,414.133L256.001,414.133C296.003,388.348 346.159,383.986 390.012,402.476C408.257,410.17 427.858,414.133 447.658,414.133C457.59,414.133 465.641,406.082 465.641,396.15L465.641,225.397C465.641,209.227 453.185,195.724 437.054,194.583C423.377,193.614 407.82,190.867 390.012,183.358Z" style="fill:rgb(255,241,212);fill-rule:nonzero;"/>
                        </g>
                        <g>
                            <g>
                                <g>
                                    <g>
                                        <ellipse cx="174.042" cy="279.909" rx="30.241" ry="24.083" style="fill:rgb(255,142,158);"/>
                                    </g>
                                    <g>
                                        <ellipse cx="337.958" cy="279.909" rx="30.241" ry="24.083" style="fill:rgb(255,142,158);"/>
                                    </g>
                                </g>
                            </g>
                            <g>
                                <path d="M191.667,236.639C187.399,236.639 183.941,240.098 183.941,244.365L183.941,256.727C183.941,260.994 187.399,264.454 191.667,264.454C195.935,264.454 199.394,260.994 199.394,256.727L199.394,244.365C199.394,240.098 195.934,236.639 191.667,236.639Z" style="fill:rgb(49,61,64);fill-rule:nonzero;"/>
                                <path d="M320.333,236.639C316.065,236.639 312.606,240.098 312.606,244.365L312.606,256.727C312.606,260.994 316.065,264.454 320.333,264.454C324.601,264.454 328.059,260.994 328.059,256.727L328.059,244.365C328.059,240.098 324.601,236.639 320.333,236.639Z" style="fill:rgb(49,61,64);fill-rule:nonzero;"/>
                            </g>
                        </g>
                        <g>
                            <path d="M309.294,36.857L286.07,33.462L275.684,12.297C267.659,-4.055 244.386,-4.146 236.316,12.297L225.93,33.462L202.706,36.857C184.701,39.488 177.513,61.74 190.54,74.511L207.346,90.985L203.378,114.247C200.303,132.28 219.124,146.033 235.227,137.519L256,126.537C274.772,136.463 268.592,133.195 276.773,137.52C292.875,146.034 311.697,132.281 308.621,114.248L304.653,90.986L321.459,74.512C334.488,61.74 327.299,39.489 309.294,36.857Z" style="fill:rgb(201,170,242);fill-rule:nonzero;"/>
                            <g>
                                <path d="M158.693,163.914C153.667,160.838 148.155,158.476 142.302,156.97C140.795,151.115 138.433,145.605 135.357,140.579C131.611,134.458 122.841,134.458 119.096,140.579C116.02,145.605 113.658,151.116 112.151,156.97C106.297,158.477 100.787,160.838 95.759,163.914C89.639,167.659 89.639,176.429 95.759,180.175C100.786,183.251 106.273,185.623 112.128,187.13C113.635,192.984 116.02,198.484 119.096,203.511C122.841,209.632 131.611,209.632 135.357,203.511C138.433,198.485 140.791,192.985 142.299,187.131C148.152,185.624 153.667,183.252 158.692,180.176C164.814,176.429 164.814,167.659 158.693,163.914Z" style="fill:rgb(233,220,250);fill-rule:nonzero;"/>
                                <path d="M447.145,52.269C442.119,49.193 436.607,46.831 430.754,45.325C429.247,39.47 426.884,33.96 423.808,28.934C420.063,22.813 411.293,22.813 407.548,28.934C404.472,33.96 402.11,39.471 400.602,45.325C394.749,46.832 389.238,49.193 384.211,52.269C378.091,56.014 378.091,64.784 384.211,68.53C389.237,71.606 394.751,73.978 400.605,75.485C402.113,81.339 404.472,86.839 407.548,91.865C411.293,97.986 420.063,97.986 423.808,91.865C426.884,86.839 429.242,81.339 430.751,75.485C436.604,73.978 442.119,71.606 447.144,68.53C453.264,64.783 453.265,56.014 447.145,52.269Z" style="fill:rgb(233,220,250);fill-rule:nonzero;"/>
                                <g>
                                    <path d="M78.294,33.481L72.113,33.481C67.846,33.481 64.386,36.94 64.386,41.207C64.386,45.474 67.846,48.934 72.113,48.934L78.294,48.934C82.561,48.934 86.02,45.474 86.02,41.207C86.02,36.94 82.561,33.481 78.294,33.481Z" style="fill:rgb(233,220,250);fill-rule:nonzero;"/>
                                    <path d="M43.268,33.481L37.087,33.481C32.82,33.481 29.36,36.94 29.36,41.207C29.36,45.474 32.82,48.934 37.087,48.934L43.268,48.934C47.535,48.934 50.994,45.474 50.994,41.207C50.994,36.94 47.535,33.481 43.268,33.481Z" style="fill:rgb(233,220,250);fill-rule:nonzero;"/>
                                    <path d="M57.69,47.903C53.423,47.903 49.964,51.363 49.964,55.63L49.964,61.811C49.964,66.078 53.423,69.537 57.69,69.537C61.957,69.537 65.416,66.078 65.416,61.811L65.416,55.63C65.416,51.363 61.957,47.903 57.69,47.903Z" style="fill:rgb(233,220,250);fill-rule:nonzero;"/>
                                    <path d="M57.69,34.511C61.957,34.511 65.416,31.052 65.416,26.785L65.416,20.604C65.416,16.337 61.957,12.877 57.69,12.877C53.423,12.877 49.964,16.337 49.964,20.604L49.964,26.785C49.964,31.052 53.423,34.511 57.69,34.511Z" style="fill:rgb(233,220,250);fill-rule:nonzero;"/>
                                </g>
                                <g>
                                    <path d="M469.763,136.499L463.581,136.499C459.314,136.499 455.855,139.958 455.855,144.225C455.855,148.492 459.314,151.952 463.581,151.952L469.763,151.952C474.03,151.952 477.489,148.492 477.489,144.225C477.489,139.958 474.03,136.499 469.763,136.499Z" style="fill:rgb(233,220,250);fill-rule:nonzero;"/>
                                    <path d="M434.736,136.499L428.555,136.499C424.288,136.499 420.829,139.958 420.829,144.225C420.829,148.492 424.288,151.952 428.555,151.952L434.736,151.952C439.003,151.952 442.463,148.492 442.463,144.225C442.463,139.958 439.003,136.499 434.736,136.499Z" style="fill:rgb(233,220,250);fill-rule:nonzero;"/>
                                    <path d="M449.159,150.922C444.892,150.922 441.433,154.381 441.433,158.648L441.433,164.829C441.433,169.096 444.892,172.555 449.159,172.555C453.426,172.555 456.885,169.096 456.885,164.829L456.885,158.648C456.885,154.381 453.426,150.922 449.159,150.922Z" style="fill:rgb(233,220,250);fill-rule:nonzero;"/>
                                    <path d="M449.159,137.529C453.426,137.529 456.885,134.07 456.885,129.803L456.885,123.622C456.885,119.355 453.426,115.895 449.159,115.895C444.892,115.895 441.433,119.355 441.433,123.622L441.433,129.803C441.433,134.07 444.892,137.529 449.159,137.529Z" style="fill:rgb(233,220,250);fill-rule:nonzero;"/>
                                </g>
                            </g>
                        </g>
                    </g>
                </g>
            </g>
        </g>
    </g>
</svg>
