<?xml version="1.0" encoding="UTF-8" standalone="no"?>
<!DOCTYPE svg PUBLIC "-//W3C//DTD SVG 1.1//EN" "http://www.w3.org/Graphics/SVG/1.1/DTD/svg11.dtd">
<svg width="100%" height="100%" viewBox="0 0 513 512" version="1.1" xmlns="http://www.w3.org/2000/svg" xmlns:xlink="http://www.w3.org/1999/xlink" xml:space="preserve" xmlns:serif="http://www.serif.com/" style="fill-rule:evenodd;clip-rule:evenodd;stroke-linejoin:round;stroke-miterlimit:2;">
    <path d="M99.555,180.383C103.695,180.383 107.055,177.027 107.055,172.883C107.055,166.766 112.031,161.789 118.148,161.789C124.262,161.789 129.238,166.766 129.238,172.883C129.238,177.027 132.598,180.383 136.738,180.383C140.883,180.383 144.238,177.027 144.238,172.883C144.238,158.496 132.535,146.789 118.148,146.789C103.762,146.789 92.055,158.496 92.055,172.883C92.055,177.027 95.414,180.383 99.555,180.383ZM244.91,180.383C249.051,180.383 252.41,177.027 252.41,172.883C252.41,166.766 257.387,161.789 263.504,161.789C269.617,161.789 274.594,166.766 274.594,172.883C274.594,177.027 277.949,180.383 282.094,180.383C286.234,180.383 289.594,177.027 289.594,172.883C289.594,158.496 277.891,146.789 263.504,146.789C249.113,146.789 237.41,158.496 237.41,172.883C237.41,177.027 240.77,180.383 244.91,180.383ZM511.969,441.281C511.441,425.898 504.488,411.277 492.887,401.168L357.691,283.301C372.945,255.887 381.648,224.355 381.648,190.824C381.648,85.605 296.047,-0 190.824,-0C160.59,-0 130.469,7.285 103.719,21.066C100.035,22.961 98.586,27.484 100.484,31.168C102.379,34.852 106.902,36.297 110.586,34.398C135.574,21.527 162.57,15 190.824,15C287.773,15 366.648,93.875 366.648,190.824C366.648,223.836 357.496,254.746 341.605,281.168C341.594,281.187 341.582,281.211 341.57,281.23C326.699,305.93 305.937,326.695 281.234,341.566C281.207,341.582 281.184,341.602 281.152,341.613C254.738,357.5 223.828,366.648 190.824,366.648C93.875,366.648 15,287.773 15,190.824C15,136.563 39.574,86.141 82.422,52.484C85.68,49.926 86.246,45.211 83.687,41.953C81.129,38.695 76.414,38.133 73.156,40.688C26.664,77.203 -0,131.926 -0,190.824C-0,296.047 85.602,381.648 190.824,381.648C224.355,381.648 255.891,372.945 283.301,357.691L401.164,492.887C411.277,504.488 425.898,511.441 441.277,511.969C441.906,511.988 442.535,512 443.16,512C457.883,512 472.164,506.109 482.602,495.672L495.676,482.602C506.555,471.719 512.492,456.66 511.969,441.281ZM485.066,471.992L471.992,485.066C463.922,493.137 453.211,497.379 441.789,496.977C430.383,496.586 419.973,491.633 412.473,483.031L385.441,452.027L421.617,415.852C424.547,412.922 424.547,408.172 421.617,405.242C418.688,402.316 413.938,402.316 411.012,405.242L375.563,440.691L296.297,349.773C317.469,335.676 335.676,317.469 349.77,296.297L440.691,375.562L435.477,380.777C432.551,383.707 432.551,388.453 435.477,391.383C436.941,392.848 438.863,393.578 440.781,393.578C442.699,393.578 444.621,392.848 446.086,391.383L452.023,385.445L483.031,412.473C491.633,419.973 496.586,430.387 496.977,441.793C497.367,453.199 493.137,463.926 485.066,471.992ZM190.824,220.398C207.664,220.398 221.367,205.465 221.367,187.113C221.367,168.762 207.664,153.828 190.824,153.828C173.984,153.828 160.281,168.762 160.281,187.113C160.281,205.465 173.984,220.398 190.824,220.398ZM190.824,168.828C199.395,168.828 206.367,177.031 206.367,187.113C206.367,197.195 199.395,205.398 190.824,205.398C182.254,205.398 175.281,197.195 175.281,187.113C175.281,177.031 182.254,168.828 190.824,168.828ZM190.824,323.336C263.891,323.336 323.336,263.891 323.336,190.824C323.336,117.758 263.891,58.313 190.824,58.313C117.758,58.313 58.313,117.758 58.313,190.824C58.313,263.891 117.758,323.336 190.824,323.336ZM190.824,73.313C255.617,73.313 308.336,126.027 308.336,190.824C308.336,255.621 255.621,308.336 190.824,308.336C126.027,308.336 73.313,255.621 73.313,190.824C73.313,126.027 126.027,73.313 190.824,73.313Z" style="fill:rgb(39,39,42);fill-rule:nonzero;"/>
</svg>
